<svg xmlns="http://www.w3.org/2000/svg" viewBox="0 0 64 64" role="img" aria-label="Jestor favicon">
  <rect width="64" height="64" rx="14" fill="#FFF8E7"/>
  <rect x="4" y="4" width="56" height="56" rx="12" fill="#FFE600" stroke="#121212" stroke-width="4"/>
  <path d="M22 18h21v8H33v17c0 8.2-5 13-13 13-4 0-7.5-1.1-10-3.2l4.6-7.4c1.4 1.1 2.9 1.8 4.8 1.8 1.9 0 2.6-1.1 2.6-3.5V18Z" fill="#0057FF"/>
  <path d="M18 13 29 20 25 28 14 21Z" fill="#FF8BD1" stroke="#121212" stroke-width="3" stroke-linejoin="round"/>
  <circle cx="16" cy="18" r="3.5" fill="#35E36D" stroke="#121212" stroke-width="3"/>
  <circle cx="47" cy="18" r="4" fill="#FF3B30" stroke="#121212" stroke-width="3"/>
  <path d="M42 18 52 24 48 31 38 25Z" fill="#FF8BD1" stroke="#121212" stroke-width="3" stroke-linejoin="round"/>
</svg>
